<svg width="104" height="103" viewBox="0 0 104 103" fill="none" xmlns="http://www.w3.org/2000/svg">
<rect width="104" height="103" fill="#F5F5F5"/>
<path id="al-Ramla" d="M11.5 31L14 24L30 29L32 35.5L38.5 32L44.5 34L46.5 40.5L49 42V32L57 29L65.5 35.5L70 26.5L72 18L64 16.5L61 12L64 4.5L72 1H79.5V12H89L93.5 15L92 21.5V29L97.5 32L103 40.5V45.5L92 52L91 60L92 67L97 69.5V76L92 74.5L84.5 76L79.5 83.5H70L64 85L54 91.5V95.5L52 102L46.5 101L42 95.5V89.5L37 82L25 80.5L21.5 76V67L14 62L1 56.5L2.5 50.5L6.5 40.5L11.5 31Z" stroke="black"/>
<rect id="Ramla" x="58" y="47" width="3" height="3" fill="black"/>
<path id="Majdal Yaba" d="M74 7H73V8H74V7Z" stroke="black"/>
<path id="al-Muzayri&#39;a" d="M73 15H72V16H73V15Z" stroke="black"/>
<path id="Qula" d="M76 18H75V19H76V18Z" stroke="black"/>
<path id="al-Tira" d="M73 25H72V26H73V25Z" stroke="black"/>
<path id="Dayr Tarif" d="M73 30H72V31H73V30Z" stroke="black"/>
<path id="Bayt Nabala" d="M77 32H76V33H77V32Z" stroke="black"/>
<path id="Sarafand al-&#39;Amar" d="M54 37H53V38H54V37Z" stroke="black"/>
<path id="al-Haditha" d="M76 38H75V39H76V38Z" stroke="black"/>
<path id="Dayr Abu Salama" d="M77 42H76V43H77V42Z" stroke="black"/>
<path id="Duhayriyya, Khirbat" d="M71 43H70V44H71V43Z" stroke="black"/>
<path id="Daniyal" d="M71 48H70V49H71V48Z" stroke="black"/>
<path id="Jimzu" d="M75 48H74V49H75V48Z" stroke="black"/>
<path id="Zakariyya, Khirbat" d="M82 49H81V50H82V49Z" stroke="black"/>
<path id="Shilta" d="M92 49H91V50H92V49Z" stroke="black"/>
<path id="Barfiliya" d="M85 52H84V53H85V52Z" stroke="black"/>
<path id="Kharruba" d="M78 52H77V53H78V52Z" stroke="black"/>
<path id="al-Burj" d="M90 54H89V55H90V54Z" stroke="black"/>
<path id="&#39;Innaba" d="M76 55H75V56H76V55Z" stroke="black"/>
<path id="al-Qubayba" d="M31 56H30V57H31V56Z" stroke="black"/>
<path id="al-Barriyya" d="M69 58H68V59H69V58Z" stroke="black"/>
<path id="al-Kunayyisa" d="M79 59H78V60H79V59Z" stroke="black"/>
<path id="Bir Ma&#39;in" d="M89 59H88V60H89V59Z" stroke="black"/>
<path id="al-Buwayra, Khirbat" d="M86 62H85V63H86V62Z" stroke="black"/>
<path id="&#39;Ajanjul" d="M89 65H88V66H89V65Z" stroke="black"/>
<path id="Bayt Shanna" d="M82 62H81V63H82V62Z" stroke="black"/>
<path id="Salbit" d="M82 65H81V66H82V65Z" stroke="black"/>
<path id="al-Qubab" d="M77 65H76V66H77V65Z" stroke="black"/>
<path id="al-Na&#39;ani" d="M60 65H59V66H60V65Z" stroke="black"/>
<path id="Zarnuqa" d="M35 62H34V63H35V62Z" stroke="black"/>
<path id="Yibna" d="M27 63H26V64H27V63Z" stroke="black"/>
<path id="&#39;Aqir" d="M44 66H43V67H44V66Z" stroke="black"/>
<path id="Abu Shusha" d="M70 68H69V69H70V68Z" stroke="black"/>
<path id="Saydun" d="M66 72H65V73H66V72Z" stroke="black"/>
<path id="al-Mansura" d="M52 72H51V73H52V72Z" stroke="black"/>
<path id="al-Maghar" d="M32 70H31V71H32V70Z" stroke="black"/>
<path id="Bashshit" d="M27 76H26V77H27V76Z" stroke="black"/>
<path id="al-Mukhayzin" d="M33 76H32V77H33V76Z" stroke="black"/>
<path id="Shahma" d="M41 76H40V77H41V76Z" stroke="black"/>
<path id="al-Mukhayzin_2" d="M41 81H40V82H41V81Z" stroke="black"/>
<path id="Umm Kalkha" d="M51 78H50V79H51V78Z" stroke="black"/>
<path id="Khulda" d="M61 76H60V77H61V76Z" stroke="black"/>
<path id="Dayr Muhaysin" d="M71 75H70V76H71V75Z" stroke="black"/>
<path id="al-Latrun" d="M78 72H77V73H78V72Z" stroke="black"/>
<path id="Dayr Ayyub" d="M90 72H89V73H90V72Z" stroke="black"/>
<path id="Bayt Jiz" d="M72 79H71V80H72V79Z" stroke="black"/>
<path id="Bayt Susin" d="M79 80H78V81H79V80Z" stroke="black"/>
<path id="Bayt Far, Khirba" d="M64 81H63V82H64V81Z" stroke="black"/>
<path id="Sajad" d="M59 85H58V86H59V85Z" stroke="black"/>
<path id="Qazaza" d="M56 87H55V88H56V87Z" stroke="black"/>
<path id="Jilya" d="M52 89H51V90H52V89Z" stroke="black"/>
<path id="al-Khayma" d="M46 91H45V92H46V91Z" stroke="black"/>
<path id="al-Tina" d="M46 95H45V96H46V95Z" stroke="black"/>
<path id="Idnibba" d="M51 96H50V97H51V96Z" stroke="black"/>
<path id="Abu al-Fadl" d="M53 41H52V42H53V41Z" stroke="black"/>
<path id="Sarafand al-Kharab" d="M39 43H38V44H39V43Z" stroke="black"/>
<path id="al-Nabi Rubin" d="M13 43H12V44H13V43Z" stroke="black"/>
<path id="Wadi Hunayn" d="M35 47H34V48H35V47Z" stroke="black"/>
<path id="Bir Salim" d="M50 47H49V48H50V47Z" stroke="black"/>
</svg>
