<svg width="63" height="72" viewBox="0 0 63 72" fill="none" xmlns="http://www.w3.org/2000/svg">
<rect width="63" height="72" fill="#F5F5F5"/>
<path id="Baysan" d="M56.5 8L50 10.5L43 4L38 2.5H20.5L13.5 1L12 5.5V10.5L15 12.5V17L6.5 20L2.5 26L1 30L8 33.5L10.5 39.5L20.5 41.5L25 45.5L27.5 51V61.5L33.5 67L40.5 71L46 68L56.5 67V51V39.5L62 26V19L56.5 14.5V8Z" stroke="black"/>
<path id="Sirin" d="M34 6V5H35V6H34Z" stroke="black"/>
<path id="al-Tira" d="M24 6H23V7H24V6Z" stroke="black"/>
<path id="al-Taqa, Khirbot" d="M44.5 16.5H43.5V17.5H44.5V16.5Z" stroke="black"/>
<path id="Danna" d="M27 16H26V17H27V16Z" stroke="black"/>
<path id="al-Bira" d="M35 17H34V18H35V17Z" stroke="black"/>
<path id="Kawkab al-Hawa" d="M41 21H40V22H41V21Z" stroke="black"/>
<path id="Kafra" d="M32 21.5H31V22.5H32V21.5Z" stroke="black"/>
<path id="al-Zawiya, Khirbat" d="M46 23H45V24H46V23Z" stroke="black"/>
<path id="Umm Sabuna, Khirbat" d="M46 26H45V27H46V26Z" stroke="black"/>
<path id="Yubla" d="M27 26H26V27H27V26Z" stroke="black"/>
<path id="Jabbul" d="M38 29H37V30H38V29Z" stroke="black"/>
<path id="al-Murassas" d="M29 31H28V32H29V31Z" stroke="black"/>
<path id="al-Hamidiyya" d="M40 36H39V37H40V36Z" stroke="black"/>
<path id="Arab al-Bawati" d="M49 40H48V41H49V40Z" stroke="black"/>
<path id="al-sakhina" d="M25 40H24V41H25V40Z" stroke="black"/>
<path id="Tall al-Shawk" d="M27 43H26V44H27V43Z" stroke="black"/>
<path id="al-Ashrafiyya" d="M30 48H29V49H30V48Z" stroke="black"/>
<path id="Umm &#39;Ajra" d="M40 50H39V51H40V50Z" stroke="black"/>
<path id="Farwana" d="M35 51H34V52H35V51Z" stroke="black"/>
<path id="Masil al-Jizl" d="M52 52H51V53H52V52Z" stroke="black"/>
<path id="Arab al-&#39;Arida" d="M41 57H40V58H41V57Z" stroke="black"/>
<path id="Arab al-Safa" d="M46 60H45V61H46V60Z" stroke="black"/>
<path id="al-Samiriyya" d="M32 59H31V60H32V59Z" stroke="black"/>
<path id="al-Hamra" d="M36 62H35V63H36V62Z" stroke="black"/>
<path id="al-Khunayzir" d="M43 64H42V65H43V64Z" stroke="black"/>
<path id="al-Fatur" d="M41 68H40V69H41V68Z" stroke="black"/>
<path id="al-Ghazzawiyya" d="M46 45H45V46H46V45Z" stroke="black"/>
<path id="Baysan_2" d="M40 45H38V47M40 45V46.5V47H38M40 45L38 47" stroke="black"/>
<path id="Zab&#39;a" d="M46 34H45V35H46V34Z" stroke="black"/>
<path id="Qumya" d="M12 28H11V29H12V28Z" stroke="black"/>
</svg>
