<svg width="145" height="168" viewBox="0 0 145 168" fill="none" xmlns="http://www.w3.org/2000/svg">
<rect width="145" height="168" fill="#F5F5F5"/>
<path id="Gaza" d="M112 6.5L98.5 1L90 14.5L82.5 28L75 42.5L65 59L54 71.5L45 83L37 89.5L25.5 100.5L21.5 104L19 113.5L12 117.5L6 121L1 126.5L6 130.5L9.5 139.5L12 151.5L15.5 161.5L19 167L27.5 161.5L33 157.5H40L46.5 155L43 151.5L40 149L43 147L45 142.5H38L33 141.5L37 132L45 128.5L46.5 119.5L54 117.5L59.5 121L69.5 119.5L72 124H78.5L82.5 119.5L86 113.5C88 112.833 92.3 111.5 93.5 111.5C94.7 111.5 98.3333 109.167 100 108L103 111.5V115.5L112 113.5L108 108L110 104V96L108 89.5L112 85.5L113.5 80.5H117H126.5L130.5 77H133.5L141 79V74.5L138 70L133.5 67.5L135 63H138L144 59V55V51.5L138 46.5V42.5L139.5 38.5V34L135 26L122.5 24.5L119 20V11.5L112 6.5Z" stroke="black"/>
<path id="Beersheba" d="M143.5 231.5L131 241.5L132.5 249L138 258L143 265.5L145 271.5L147 281.5L149 287.5L153 291L159 295L161 302.5L166 313.5L172 325.5L182.5 343L187.5 353L191.5 358.5V363.5V376.5V385.5L194 391L197 394L202 399.5L200 411V421.5L206 426C209 427.333 215.4 430.1 217 430.5C218.6 430.9 221.333 432.667 222.5 433.5L226 441L228.5 450L234.5 460.5L240.5 472.5C243 476 248.2 483.2 249 484C249.8 484.8 251.667 490.667 252.5 493.5L254 504V522L261.5 531.5L270 539.5L275.5 552L277.5 562.5L284 578.5L289 593V603V615L292.5 624.5L298.5 632L304.5 635C305.5 634.333 307.7 632.8 308.5 632C309.3 631.2 310.5 628 311 626.5C313.167 625.667 317.5 623.7 317.5 622.5C317.5 621 317 615 317.5 613.5C318 612 321.5 607.5 322.5 606C323.3 604.8 326.5 600.167 328 598V590V580C328.5 577 329.6 570.7 330 569.5C330.4 568.3 331.167 564.333 331.5 562.5V553L337 546V539.5C337 538.3 335.667 530 335 526L337 518.5L341.5 512.5L343 500L347 493.5L353 489L358 480V474C357.167 472.5 355.5 469 355.5 467C355.5 465 352.167 463.5 350.5 463V454.5L353 448.5V441V433.5L361 429.5V419.5L353 414L348.5 410.5L350.5 400.5L355.5 395L358 385.5L361 374L363.5 364.5L369 351.5L374.5 341L378.5 329L379.5 316L385 310L392 304L388.5 296L392 290.5L400 282L407 273L403.5 264.5L405.5 255L410.5 245H407L397.5 241.5L392 239.5L379.5 241.5L374.5 243.5H361L333.5 241.5L320.5 239.5L317 233.5L315.5 223.5H312L304.5 233.5L289.5 231.5L277 221.5L273 211.5V201L257.5 196L251.5 182V168L256.5 163.5V157.5L251.5 152.5L241 151L237.5 155H224.5L223 160.5L218.5 163.5L221.5 168V177.5L218.5 182L223 188H214.5V185L211 182L204.5 185L197 188L189 198H183.5L181.5 193L170.5 195L165 191.5L157.5 193L156 202.5L147.5 206.5L143.5 215L156 216.5L154.5 221.5L151 223.5L157.5 229.5L151 231.5H143.5Z" stroke="black"/>
<path id="Arab Suqir" d="M97 15H96V16H97V15Z" stroke="black"/>
<path id="Barqa" d="M104 24H103V25H104V24Z" stroke="black"/>
<path id="Yasur" d="M120 28H119V29H120V28Z" stroke="black"/>
<path id="al-Batani al-Gharbi" d="M105 29H104V30H105V29Z" stroke="black"/>
<path id="Isdud" d="M98 30H97V31H98V30Z" stroke="black"/>
<path id="al-Batani al-Sharqi" d="M112 31H111V32H112V31Z" stroke="black"/>
<path id="al-Masmiyya al-Kabira" d="M130 30H129V31H130V30Z" stroke="black"/>
<path id="al-Masmiyya al-Saghira" d="M135 31H134V32H135V31Z" stroke="black"/>
<path id="Qastina" d="M124 35H123V36H124V35Z" stroke="black"/>
<path id="Tall al-Turmus" d="M127 41H126V42H127V41Z" stroke="black"/>
<path id="Bayt Daras" d="M102 40H101V41H102V40Z" stroke="black"/>
<path id="al-Sawafir al-Sharqiyya" d="M107 42H106V43H107V42Z" stroke="black"/>
<path id="Hamama" d="M79 50H78V51H79V50Z" stroke="black"/>
<path id="al-Sawafir al-Gharbiyya" d="M105 46H104V47H105V46Z" stroke="black"/>
<path id="Julis" d="M96 55H95V56H96V55Z" stroke="black"/>
<path id="Ibdis" d="M106 56H105V57H106V56Z" stroke="black"/>
<path id="Summil" d="M137 58H136V59H137V58Z" stroke="black"/>
<path id="Jusayr" d="M131 61H130V62H131V61Z" stroke="black"/>
<path id="Bayt &#39;Affa" d="M108 60H107V61H108V60Z" stroke="black"/>
<path id="al-Jura" d="M71 59H70V60H71V59Z" stroke="black"/>
<path id="Hatta" d="M121 62H120V63H121V62Z" stroke="black"/>
<path id="Iraq Suwaydan" d="M105 63H104V64H105V63Z" stroke="black"/>
<path id="Karatiyya" d="M115 66H114V67H115V66Z" stroke="black"/>
<path id="al-Khisas" d="M72 64H71V65H72V64Z" stroke="black"/>
<path id="Ni&#39;ilya" d="M77 63H76V64H77V63Z" stroke="black"/>
<path id="al-Jiyya" d="M82 68H81V69H82V68Z" stroke="black"/>
<path id="Barbara" d="M78 70H77V71H78V70Z" stroke="black"/>
<path id="Bayt Tima" d="M93 70H92V71H93V70Z" stroke="black"/>
<path id="Kawkaba" d="M98 67H97V68H98V67Z" stroke="black"/>
<path id="al-Faluja" d="M124 72H123V73H124V72Z" stroke="black"/>
<path id="Hiribya" d="M68 74H67V75H68V74Z" stroke="black"/>
<path id="Bayt Jirja" d="M79 76H78V77H79V76Z" stroke="black"/>
<path id="Hulayqat" d="M95 79H94V80H95V79Z" stroke="black"/>
<path id="Dayr Sunayd" d="M70 84H69V85H70V84Z" stroke="black"/>
<path id="Simsim" d="M85 85H84V86H85V85Z" stroke="black"/>
<path id="Dimra" d="M73 88H72V89H73V88Z" stroke="black"/>
<path id="Najd" d="M82 90H81V91H82V90Z" stroke="black"/>
<path id="Kawfakha" d="M107 110H106V111H107V110Z" stroke="black"/>
<path id="al-Muharraqa" d="M93 109H92V110H93V109Z" stroke="black"/>
<path id="Huj" d="M96 98H95V99H96V98Z" stroke="black"/>
<path id="Burayr" d="M94 85H93V86H94V85Z" stroke="black"/>
<path id="Iraq al-Manshiyya" d="M136 74H135V75H136V74Z" stroke="black"/>
<path id="al-Sawafir al-Shamaliyya" d="M109 47H108V48H109V47Z" stroke="black"/>
<path id="al-Jaladiyya" d="M117 48H116V49H117V48Z" stroke="black"/>
<path id="Bi&#39;lin" d="M141 51H140V52H141V51Z" stroke="black"/>
<path id="Gaza_2" d="M33 104H35V106M33 104V106H35M33 104L35 106" stroke="black"/>
</svg>
