<svg width="59" height="76" viewBox="0 0 59 76" fill="none" xmlns="http://www.w3.org/2000/svg">
<rect width="59" height="76" fill="#F5F5F5"/>
<path id="Jaffa" d="M14.5 18L18.5 1L27.5 3L33 12H49.5L52 19.5V25L47 27.5H55.5L58 30L57 34.5L51 38.5L47 44.5L51 49.5L58 51.5L57 57L55.5 63L52 69.5L43 63L36 65.5V75L33 73.5L30.5 67.5L24.5 65.5L18.5 69.5L16.5 63L8.5 59.5L1 57L4.5 50.5L10 34.5L14.5 18Z" stroke="black"/>
<path id="al-Haram" d="M19.5 12.5H18.5V13.5H19.5V12.5Z" stroke="black"/>
<path id="Ijlil al-Shamaliyya" d="M21.5 18.5H20.5V19.5H21.5V18.5Z" stroke="black"/>
<path id="Biyar &#39;Adas" d="M49.5 20.5H48.5V21.5H49.5V20.5Z" stroke="black"/>
<path id="Ijlil al-Qibliyya" d="M20.5 21.5H19.5V22.5H20.5V21.5Z" stroke="black"/>
<path id="Abu Kishk" d="M32.5 27.5H31.5V28.5H32.5V27.5Z" stroke="black"/>
<path id="al-Muwaylih" d="M50.5 29.5H49.5V30.5H50.5V29.5Z" stroke="black"/>
<path id="al-Mirr" d="M49.5 33.5H48.5V34.5H49.5V33.5Z" stroke="black"/>
<path id="al-Shaykh Muwannis" d="M19.5 33.5H18.5V34.5H19.5V33.5Z" stroke="black"/>
<path id="al-Jammasin al-Gharbi" d="M17.5 37.5H16.5V38.5H17.5V37.5Z" stroke="black"/>
<path id="Jarisha" d="M21.5 37.5H20.5V38.5H21.5V37.5Z" stroke="black"/>
<path id="al-Jammasin al-Sharqi" d="M27.5 37.5H26.5V38.5H27.5V37.5Z" stroke="black"/>
<path id="Fajja" d="M45.5 40.5H44.5V41.5H45.5V40.5Z" stroke="black"/>
<path id="Salama" d="M22.5 46.5H21.5V47.5H22.5V46.5Z" stroke="black"/>
<path id="Rantiya" d="M51.5 51.5H50.5V52.5H51.5V51.5Z" stroke="black"/>
<path id="al-Khayriyya" d="M27.5 49.5H26.5V50.5H27.5V49.5Z" stroke="black"/>
<path id="Saqiya" d="M32.5 53.5H31.5V54.5H32.5V53.5Z" stroke="black"/>
<path id="al-&#39;Abbasiyya" d="M43.5 53.5H42.5V54.5H43.5V53.5Z" stroke="black"/>
<path id="Kafr &#39;Ana" d="M38.5 56.5H37.5V57.5H38.5V56.5Z" stroke="black"/>
<path id="Yazur" d="M23.5 53.5H22.5V54.5H23.5V53.5Z" stroke="black"/>
<path id="Bayt Dajan" d="M29.5 59.5H28.5V60.5H29.5V59.5Z" stroke="black"/>
<path id="al-Safiriyya" d="M35.5 61.5H34.5V62.5H35.5V61.5Z" stroke="black"/>
<path id="al-Mas&#39;udiyya" d="M14.5 40.5H13.5V41.5H14.5V40.5Z" stroke="black"/>
<path id="al-Sawalima" d="M25.5 27.5H24.5V28.5H25.5V27.5Z" stroke="black"/>
<rect id="Yafa" x="7.5" y="46.5" width="3" height="3" fill="black"/>
</svg>
