<svg width="67" height="75" viewBox="0 0 67 75" fill="none" xmlns="http://www.w3.org/2000/svg">
<rect width="67" height="75" fill="#F5F5F5"/>
<path id="Ma'lul" d="M19.5 39.5H18.5V40.5H19.5V39.5Z" stroke="black"/>
<path id="Nazareth" d="M19 9.5L16 11L18.5 22.5L14 27L11.5 37.5L5 43L1 52L2.5 59H14L18.5 61.5L20 67L27.5 71L34.5 73.5L42 71L48 69L53 71L61 68V63.5L57.5 60.5V56L59.5 52L66 53.5L64.5 43L54.5 32.5L53 26L57.5 21V13L53 11H48L45 13L40.5 18H37L32 3L25 1L21 3L19 9.5Z" stroke="black"/>
<path id="Saffuriyya" d="M30 25H29V26H30V25Z" stroke="black"/>
<path id="al-Mujaydil" d="M21 44.5H20V45.5H21V44.5Z" stroke="black"/>
<path id="Indur" d="M51.5 59H50.5V60H51.5V59Z" stroke="black"/>
</svg>
