<svg width="82" height="119" viewBox="0 0 82 119" fill="none" xmlns="http://www.w3.org/2000/svg">
<rect width="82" height="119" fill="#F5F5F5"/>
<path id="Safad" fill-rule="evenodd" clip-rule="evenodd" d="M52.5 2L55 8.5L62 11.5L67.5 8.5L72 10L77 8.5L80.5 30.5L78.5 38V48L69 56.5L67.5 91L78.5 101V106.5L70.5 110L58 112H55L52.5 108H48.5L39.5 117.5L35.5 115.5L32.5 112L20.5 110L19 101L20.5 96L18 93L16.5 82H13L7.5 85L0.5 83.5V76.5L2.5 68.5V63.5L13 60.5L20.5 56.5L26 51H35.5L41 44L42.5 27L52.5 2Z" stroke="black"/>
<rect id="Safad_2" x="31" y="88" width="3" height="3" fill="black"/>
<path id="Abil al-Qamh" d="M56 12H55V13H56V12Z" stroke="black"/>
<path id="al-Zuq al-Fawqani" d="M60 17H59V18H60V17Z" stroke="black"/>
<path id="al-Shawka al-Tahta" d="M69 16H68V17H69V16Z" stroke="black"/>
<path id="Khan al-Duwayr" d="M75 12H74V13H75V12Z" stroke="black"/>
<path id="al-Sanbariyya" d="M65 20H64V21H65V20Z" stroke="black"/>
<path id="al-Manshiyya" d="M61 22H60V23H61V22Z" stroke="black"/>
<path id="al-Khisas" d="M67 23H66V24H67V23Z" stroke="black"/>
<path id="Hunin" d="M48 24H47V25H48V24Z" stroke="black"/>
<path id="al-Zuq al-Tahtani" d="M60 26H59V27H60V26Z" stroke="black"/>
<path id="al-Mansura" d="M72 27H71V28H72V27Z" stroke="black"/>
<path id="al-Khalisa" d="M53 29H52V30H53V29Z" stroke="black"/>
<path id="Lazzaza" d="M65 29H64V30H65V29Z" stroke="black"/>
<path id="Madahil" d="M72 31H71V32H72V31Z" stroke="black"/>
<path id="Qaytiyya" d="M66 33H65V34H66V33Z" stroke="black"/>
<path id="al-&#39;Abisiyya" d="M70 34H69V35H70V34Z" stroke="black"/>
<path id="al-Na&#39;ima" d="M61 35H60V36H61V35Z" stroke="black"/>
<path id="al-Dawwara" d="M72 39H71V40H72V39Z" stroke="black"/>
<path id="al-Hamra&#39;" d="M76 42H75V43H76V42Z" stroke="black"/>
<path id="al-Salihiyya" d="M66 43H65V44H66V43Z" stroke="black"/>
<path id="al-Buwayziyya" d="M53 46H52V47H53V46Z" stroke="black"/>
<path id="al-Muftakhira" d="M71 46H70V47H71V46Z" stroke="black"/>
<path id="Khiyam al-Walid" d="M74 49H73V50H74V49Z" stroke="black"/>
<path id="Jahula" d="M54 53H53V54H54V53Z" stroke="black"/>
<path id="Ghuraba" d="M67 55H66V56H67V55Z" stroke="black"/>
<path id="al-Nabi Yusha&#39;" d="M51 57H50V58H51V57Z" stroke="black"/>
<path id="Qadas" d="M43 54H42V55H43V54Z" stroke="black"/>
<path id="al-&#39;Urayfiyya" d="M67 59H66V60H67V59Z" stroke="black"/>
<path id="al-Malikiyya" d="M37 54H36V55H37V54Z" stroke="black"/>
<path id="Baysamun" d="M58 59H57V60H58V59Z" stroke="black"/>
<path id="al-Dirbashiyya" d="M67 63H66V64H67V63Z" stroke="black"/>
<path id="Harrawi" d="M52 62H51V63H52V62Z" stroke="black"/>
<path id="Mallaha" d="M58 62H57V63H58V62Z" stroke="black"/>
<path id="&#39;Arab al-Zubayd" d="M53 66H52V67H53V66Z" stroke="black"/>
<path id="Saliha" d="M27 60H26V61H27V60Z" stroke="black"/>
<path id="Dayshum" d="M38 63H37V64H38V63Z" stroke="black"/>
<path id="al-&#39;Ulmaniyya" d="M59 67H58V68H59V67Z" stroke="black"/>
<path id="Tulayl" d="M64 72H63V73H64V72Z" stroke="black"/>
<path id="Fara" d="M28 64H27V65H28V64Z" stroke="black"/>
<path id="Kafr Bir&#39;im" d="M21 72H20V73H21V72Z" stroke="black"/>
<path id="Sa&#39;sa&#39;" d="M15 76H14V77H15V76Z" stroke="black"/>
<path id="Sabalan" d="M4 81H3V82H4V81Z" stroke="black"/>
<path id="Ghabbatiyya" d="M11 80H10V81H11V80Z" stroke="black"/>
<path id="Safsaf" d="M24 79H23V80H24V79Z" stroke="black"/>
<path id="Taytaba" d="M31 79H30V80H31V79Z" stroke="black"/>
<path id="Qaddita" d="M28 83H27V84H28V83Z" stroke="black"/>
<path id="Kirad al-Baqqara" d="M62 80H61V81H62V80Z" stroke="black"/>
<path id="Yarda" d="M59 83H58V84H59V83Z" stroke="black"/>
<path id="al-Wayziyya" d="M55 84H54V85H55V84Z" stroke="black"/>
<path id="Qabba&#39;a" d="M47 80H46V81H47V80Z" stroke="black"/>
<path id="al-Dirdara" d="M65 87H64V88H65V87Z" stroke="black"/>
<path id="Mughr al-Khayt" d="M49 83H48V84H49V83Z" stroke="black"/>
<path id="Mirun" d="M21 87H20V88H21V87Z" stroke="black"/>
<path id="&#39;Ayn al-Zaytun" d="M35 85H34V86H35V85Z" stroke="black"/>
<path id="Biriyya" d="M38 85H37V86H38V85Z" stroke="black"/>
<path id="To Fir&#39;im" d="M46 85H45V86H46V85Z" stroke="black"/>
<path id="al-Ja&#39;una" d="M43 89H42V90H43V89Z" stroke="black"/>
<path id="al-Zahiriyya al-Tahta" d="M31 93H30V94H31V93Z" stroke="black"/>
<path id="al-Sammu&#39;i" d="M24 95H23V96H24V95Z" stroke="black"/>
<path id="al-Zanghariyya" d="M57 97H56V98H57V97Z" stroke="black"/>
<path id="&#39;Akbara" d="M35 97H34V98H35V97Z" stroke="black"/>
<path id="al-Farradiyya" d="M22 102H21V103H22V102Z" stroke="black"/>
<path id="Karraza, Khirbat" d="M55 105H54V106H55V105Z" stroke="black"/>
<path id="Jubb Yusuf" d="M42 105H41V106H42V105Z" stroke="black"/>
<path id="al-Shuna" d="M31 108H30V109H31V108Z" stroke="black"/>
<path id="al-Qudayriyya" d="M38 109H37V110H38V109Z" stroke="black"/>
<path id="al-Butayha" d="M76 104H75V105H76V104Z" stroke="black"/>
<path id="&#39;Arab al-Shamalina" d="M71 107H70V108H71V107Z" stroke="black"/>
<path id="al-Muntar, Khirbat" d="M57 90H56V91H57V90Z" stroke="black"/>
<path id="Mansurat al-Khayt" d="M64 93H63V94H64V93Z" stroke="black"/>
<path id="Marus" d="M46 73H45V74H46V73Z" stroke="black"/>
<path id="Dallata" d="M37 77H36V78H37V77Z" stroke="black"/>
<path id="&#39;Ammuqa" d="M41 80H40V81H41V80Z" stroke="black"/>
<path id="al-Husayniyya" d="M55 74H54V75H55V74Z" stroke="black"/>
<path id="Kirad al-Ghannama" d="M59 78H58V79H59V78Z" stroke="black"/>
<path id="&#39;Alma" d="M35 68H34V69H35V68Z" stroke="black"/>
<path id="al-Zawiya" d="M61 47H60V48H61V47Z" stroke="black"/>
</svg>
