<svg width="71" height="81" viewBox="0 0 71 81" fill="none" xmlns="http://www.w3.org/2000/svg">
<rect width="71" height="81" fill="#F5F5F5"/>
<path id="Tiberias" d="M7.5 21.5L6 32V39.5L1 45L2 50L5 54L13 61.5L14 72.5H31C32.6 72.5 35.6667 73.1667 37 73.5L43.5 80L50.5 77L57 70L58 62.5L53.5 59L49 53L53.5 49L61.5 47.5L65.5 39.5L69.5 37V32L65.5 30.5L62.5 27L68 18.5L69.5 1L62.5 5L46 7L43.5 3H39L30 11.5L24 7L11.5 5H6L3 7L1 11.5L7.5 21.5Z" stroke="black"/>
<rect id="tiberias" x="46" y="32" width="3" height="3" fill="black"/>
<path id="al-Mansura" d="M16 11H15V12H16V11Z" stroke="black"/>
<path id="Yaquq" d="M34 12H33V13H34V12Z" stroke="black"/>
<path id="al-Samakiyya" d="M57 12H56V13H57V12Z" stroke="black"/>
<path id="al-Tabigha" d="M49 17H48V18H49V17Z" stroke="black"/>
<path id="Ghuwayr Abu Shusha" d="M40 20H39V21H40V20Z" stroke="black"/>
<path id="al-Wa&#39;ra al-Sawda&#39;, Khirbat" d="M34 24H33V25H34V24Z" stroke="black"/>
<path id="Wadi al-Hamam" d="M40 25H39V26H40V25Z" stroke="black"/>
<path id="al-Majdal" d="M43 27H42V28H43V27Z" stroke="black"/>
<path id="Hittin" d="M24 32H23V33H24V32Z" stroke="black"/>
<path id="Lubya" d="M14 39H13V40H14V39Z" stroke="black"/>
<path id="Nasir al-Din" d="M43 39H42V40H43V39Z" stroke="black"/>
<path id="al-Nuqayb" d="M66 35H65V36H66V35Z" stroke="black"/>
<path id="al-Manara" d="M49 42H48V43H49V42Z" stroke="black"/>
<path id="al-Shajara" d="M7 46H6V47H7V46Z" stroke="black"/>
<path id="Kafr Sabt" d="M18 49H17V50H18V49Z" stroke="black"/>
<path id="Samakh" d="M51 48H50V49H51V48Z" stroke="black"/>
<path id="al-Manshiyya" d="M42 52H41V53H42V52Z" stroke="black"/>
<path id="al-&#39;Ubaydiyya" d="M42 57H41V58H42V57Z" stroke="black"/>
<path id="al-Hamma" d="M55 63H54V64H55V63Z" stroke="black"/>
<path id="al-Dalhamiyya" d="M47 69H46V70H47V69Z" stroke="black"/>
<path id="&#39;Awlam" d="M28 68H27V69H28V68Z" stroke="black"/>
<path id="Hadatha" d="M26 61H25V62H26V61Z" stroke="black"/>
<path id="Ma&#39;dhar" d="M19 58H18V59H19V58Z" stroke="black"/>
<path id="al-Samra" d="M58 44H57V45H58V44Z" stroke="black"/>
<path id="Nimrin" d="M14 32H13V33H14V32Z" stroke="black"/>
</svg>
